<svg width="200" height="51" viewBox="0 0 200 51" fill="none" xmlns="http://www.w3.org/2000/svg">
<path d="M134.121 18.9584C130.036 19.4567 130.753 26.6034 135.046 25.8087C138.428 25.1811 137.856 18.5031 134.121 18.9584Z" fill="white"/>
<mask id="mask0_85_91" style="mask-type:luminance" maskUnits="userSpaceOnUse" x="115" y="10" width="31" height="32">
<path d="M115.832 10.2466H145.834V41.7965H115.832V10.2466Z" fill="white"/>
</mask>
<g mask="url(#mask0_85_91)">
<path d="M142.575 15.1524C139.4 10.7938 135.788 9.92103 130.254 10.344C118.121 11.276 114.081 21.7091 116.502 32.083C118.634 41.2096 129.509 42.3517 137.797 41.6056C147.375 40.7435 138.688 34.467 139.013 31.2613C139.28 28.6349 145.041 29.5966 145.537 25.6555C145.99 22.0431 144.648 17.9944 142.575 15.1524ZM138.887 29.1548C135.048 31.7947 144.133 39.1057 140.14 40.229C139.086 40.5253 133.023 40.4203 131.627 40.291C117.076 38.9468 117.474 13.194 132.4 11.4161C139.669 10.5487 143.858 17.2589 144.5 23.3389C145.029 28.3413 141.6 27.288 138.887 29.1548Z" fill="white"/>
</g>
<path d="M132.4 11.4157C117.474 13.1936 117.076 38.9464 131.627 40.2933C133.023 40.4199 139.086 40.525 140.137 40.2286C144.133 39.1053 135.048 31.7943 138.887 29.1544C141.6 27.2876 145.029 28.3436 144.5 23.3412C143.858 17.2613 139.669 10.5483 132.4 11.4157ZM135.046 25.8087C130.753 26.6034 130.036 19.4567 134.121 18.9584C137.856 18.5031 138.428 25.1811 135.046 25.8087Z" fill="#FF484B"/>
<path d="M14.694 40.1067C11.7126 40.1067 9.11509 39.5222 6.90427 38.3504C4.69905 37.1732 2.9954 35.5057 1.79332 33.3507C0.596838 31.1903 0 28.6581 0 25.7542C0 23.5641 0.336247 21.603 1.00874 19.8709C1.68684 18.1415 2.66756 16.6707 3.9453 15.4638C5.22303 14.2516 6.76977 13.3196 8.5855 12.673C10.4068 12.0211 12.4439 11.6925 14.694 11.6925C15.9717 11.6925 17.3531 11.8622 18.841 12.1989C20.3345 12.5303 21.7384 13.0879 23.0553 13.8691C23.6746 14.2435 24.0781 14.6934 24.2658 15.216C24.4592 15.7332 24.4956 16.2612 24.3779 16.8C24.2658 17.3387 24.0248 17.8074 23.6606 18.2007C23.2935 18.5886 22.8368 18.8311 22.2932 18.9227C21.7552 19.017 21.1555 18.8957 20.4998 18.5563C19.648 18.0768 18.7738 17.7132 17.8771 17.468C16.9861 17.2256 16.1398 17.1017 15.3329 17.1017C14.0551 17.1017 12.9287 17.301 11.9592 17.6943C10.9953 18.0822 10.1715 18.6398 9.49337 19.3645C8.81247 20.0918 8.29689 20.9969 7.94663 22.0798C7.60198 23.1573 7.43106 24.4019 7.43106 25.808C7.43106 28.5665 8.11756 30.7377 9.49337 32.3163C10.8664 33.8975 12.8138 34.6868 15.3329 34.6868C16.1398 34.6868 16.9805 34.5764 17.8547 34.3528C18.7289 34.1319 19.6088 33.779 20.4998 33.2968C21.1555 32.9601 21.7468 32.8496 22.2707 32.9628C22.7919 33.0705 23.2262 33.3238 23.5709 33.717C23.9212 34.105 24.1341 34.5683 24.2098 35.107C24.291 35.6458 24.2238 36.1792 24.008 36.7018C23.7979 37.219 23.4028 37.6473 22.82 37.984C21.5422 38.7329 20.186 39.2717 18.7514 39.6003C17.3223 39.937 15.9717 40.1067 14.694 40.1067Z" fill="white"/>
<path d="M38.1476 40.1067C36.0909 40.1067 34.2612 39.7242 32.6556 38.9646C31.0472 38.1968 29.7891 37.1624 28.8784 35.8613C27.9733 34.5629 27.5222 33.0921 27.5222 31.4543C27.5222 29.4447 28.063 27.8526 29.1474 26.6808C30.229 25.5117 31.9887 24.6659 34.4265 24.1487C36.8699 23.6261 40.1427 23.3621 44.2449 23.3621H47.1478V27.3812H44.3009C41.9024 27.3812 39.9858 27.4944 38.5511 27.7153C37.1165 27.9388 36.0993 28.3187 35.5025 28.8574C34.9028 29.3962 34.6058 30.1504 34.6058 31.1202C34.6058 32.3486 35.0485 33.3561 35.9396 34.1373C36.8278 34.9131 38.0692 35.301 39.6607 35.301C40.9385 35.301 42.0705 35.0155 43.0568 34.439C44.0431 33.8652 44.8221 33.0759 45.3993 32.0684C45.9822 31.0637 46.2736 29.9107 46.2736 28.6096V22.1876C46.2736 20.3288 45.8477 18.9873 44.9958 18.1684C44.144 17.3495 42.7122 16.94 40.7031 16.94C39.5823 16.94 38.3718 17.0693 37.0716 17.3279C35.7715 17.5865 34.4069 18.0337 32.9806 18.6641C32.2409 19.0035 31.5908 19.0951 31.0304 18.9442C30.47 18.7934 30.0329 18.489 29.719 18.0283C29.4108 17.5623 29.2595 17.0532 29.2595 16.4983C29.2595 15.9379 29.4108 15.3884 29.719 14.8496C30.0329 14.3055 30.5596 13.9014 31.2994 13.6428C33.0759 12.9397 34.788 12.4414 36.4328 12.1451C38.0748 11.8434 39.5767 11.6925 40.9385 11.6925C43.7237 11.6925 46.0158 12.102 47.8091 12.9209C49.608 13.7398 50.953 14.9789 51.8441 16.6383C52.7407 18.2923 53.1891 20.4177 53.1891 23.0173V36.4216C53.1891 37.5719 52.8976 38.4554 52.3148 39.0723C51.732 39.6811 50.897 39.9882 49.8154 39.9882C48.731 39.9882 47.8904 39.6811 47.2935 39.0723C46.6939 38.4554 46.3969 37.5719 46.3969 36.4216V33.7386H46.8564C46.5874 35.0478 46.0522 36.1738 45.2536 37.122C44.4607 38.0702 43.4631 38.8083 42.261 39.3309C41.0646 39.8481 39.6944 40.1067 38.1476 40.1067Z" fill="white"/>
<path d="M64.2695 39.9882C63.073 39.9882 62.1539 39.6811 61.5123 39.0723C60.8762 38.4555 60.5596 37.5719 60.5596 36.4216V15.313C60.5596 14.1654 60.8678 13.2926 61.4899 12.6946C62.1091 12.0993 62.9805 11.8003 64.1014 11.8003C65.2222 11.8003 66.0908 12.0993 66.7129 12.6946C67.3321 13.2926 67.6432 14.1654 67.6432 15.313V18.8365H67.0603C67.6039 16.6033 68.6687 14.9116 70.2547 13.7614C71.8378 12.6057 73.9478 11.9161 76.5873 11.6925C77.3999 11.6144 78.0472 11.8083 78.5264 12.2744C79.0111 12.7431 79.2913 13.4596 79.367 14.4294C79.4482 15.3561 79.2269 16.1104 78.7057 16.6922C78.1817 17.2687 77.3971 17.6081 76.352 17.7159L75.0742 17.8344C72.7121 18.058 70.93 18.7557 69.7279 19.9248C68.5314 21.0966 67.9346 22.7425 67.9346 24.8598V36.4216C67.9346 37.5719 67.6236 38.4555 67.0043 39.0723C66.3822 39.6811 65.4716 39.9882 64.2695 39.9882Z" fill="white"/>
<path d="M86.9173 39.9882C85.7572 39.9882 84.869 39.6811 84.2497 39.0723C83.6277 38.4555 83.3195 37.5719 83.3195 36.4216V15.313C83.3195 14.1654 83.6277 13.2926 84.2497 12.6946C84.869 12.0993 85.7404 11.8003 86.8613 11.8003C87.9821 11.8003 88.8507 12.0993 89.4728 12.6946C90.092 13.2926 90.4031 14.1654 90.4031 15.313V19.1166L89.7642 17.7159C90.616 15.7494 91.9414 14.2543 93.7431 13.2334C95.542 12.207 97.5819 11.6925 99.8628 11.6925C102.149 11.6925 104.027 12.102 105.501 12.9209C106.972 13.7398 108.073 14.9789 108.807 16.6383C109.547 18.2923 109.917 20.3827 109.917 22.9095V36.4216C109.917 37.5719 109.606 38.4555 108.986 39.0723C108.364 39.6811 107.473 39.9882 106.308 39.9882C105.147 39.9882 104.248 39.6811 103.606 39.0723C102.97 38.4555 102.654 37.5719 102.654 36.4216V23.2435C102.654 21.1262 102.233 19.58 101.398 18.6102C100.569 17.6404 99.2828 17.1555 97.5427 17.1555C95.4131 17.1555 93.7151 17.7994 92.4542 19.0843C91.1988 20.3719 90.5712 22.0744 90.5712 24.1918V36.4216C90.5712 38.8003 89.3523 39.9882 86.9173 39.9882Z" fill="white"/>
<path d="M159.376 39.9882C158.216 39.9882 157.317 39.6811 156.675 39.0723C156.039 38.4555 155.722 37.5719 155.722 36.4216V17.5003H153.044C152.116 17.5003 151.399 17.2687 150.892 16.8C150.39 16.3339 150.141 15.6901 150.141 14.8712C150.141 14.0173 150.39 13.368 150.892 12.9209C151.399 12.4683 152.116 12.242 153.044 12.242H157.807L155.722 14.0846V12.1882C155.722 8.36027 156.725 5.48598 158.737 3.56799C160.755 1.65 163.658 0.523988 167.446 0.184569L169.419 0.0229407C170.195 -0.0551794 170.814 0.0660416 171.279 0.389298C171.742 0.707167 172.053 1.11663 172.21 1.61767C172.367 2.11333 172.383 2.62516 172.266 3.14775C172.154 3.67305 171.91 4.1283 171.537 4.51621C171.17 4.90411 170.699 5.11962 170.125 5.16272L169.307 5.2166C167.101 5.36206 165.496 5.90082 164.487 6.83288C163.478 7.75955 162.974 9.17649 162.974 11.0783V13.1364L162.044 12.242H167.917C168.842 12.242 169.556 12.4683 170.058 12.9209C170.565 13.368 170.82 14.0173 170.82 14.8712C170.82 15.6901 170.565 16.3339 170.058 16.8C169.556 17.2687 168.842 17.5003 167.917 17.5003H162.974V36.4216C162.974 38.8003 161.775 39.9882 159.376 39.9882Z" fill="white"/>
<path d="M181.555 50.0415C180.703 50.0415 180.003 49.826 179.459 49.395C178.921 48.9694 178.602 48.4037 178.506 47.6925C178.408 46.9867 178.534 46.2432 178.887 45.462L182.833 37.0358V39.9344L172.263 16.4336C171.919 15.6147 171.804 14.855 171.916 14.1493C172.034 13.4381 172.392 12.8724 172.992 12.4468C173.589 12.0158 174.41 11.8003 175.458 11.8003C176.346 11.8003 177.06 11.9996 177.598 12.3929C178.142 12.7808 178.63 13.5135 179.056 14.591L186.901 33.4046H185.153L193.167 14.5372C193.593 13.4974 194.097 12.7808 194.68 12.3929C195.263 11.9996 196.036 11.8003 197 11.8003C197.852 11.8003 198.527 12.0158 199.029 12.4468C199.536 12.8724 199.847 13.4273 199.959 14.1169C200.077 14.8065 199.942 15.5608 199.555 16.3797L185.444 47.3585C184.943 48.3983 184.402 49.1068 183.819 49.4812C183.242 49.8529 182.488 50.0415 181.555 50.0415Z" fill="white"/>
</svg>
